<svg id="camo" xmlns="http://www.w3.org/2000/svg" xmlns:xlink="http://www.w3.org/1999/xlink" viewBox="0 0 2960 1430.87" preserveAspectRatio="xMinYMin slice" shape-rendering="geometricPrecision"><defs><style>.cls-1{fill:none;}.cls-2{fill:#231f20;}.cls-3{fill:url(#_10_dpi_20_);}</style><pattern id="_10_dpi_20_" data-name="10 dpi 20%" width="28.8" height="28.8" patternUnits="userSpaceOnUse" viewBox="0 0 28.8 28.8"><rect class="cls-1" width="28.8" height="28.8"/><circle class="cls-2" cx="28.8" cy="28.8" r="1.44"/><circle class="cls-2" cx="14.4" cy="28.8" r="1.44"/><circle class="cls-2" cx="28.8" cy="14.4" r="1.44"/><circle class="cls-2" cx="14.4" cy="14.4" r="1.44"/><circle class="cls-2" cx="7.2" cy="21.6" r="1.44"/><circle class="cls-2" cx="21.6" cy="21.6" r="1.44"/><circle class="cls-2" cx="7.2" cy="7.2" r="1.44"/><circle class="cls-2" cx="21.6" cy="7.2" r="1.44"/><circle class="cls-2" cy="28.8" r="1.44"/><circle class="cls-2" cy="14.4" r="1.44"/><circle class="cls-2" cx="28.8" r="1.44"/><circle class="cls-2" cx="14.4" r="1.44"/><circle class="cls-2" r="1.44"/></pattern></defs><title>VS-Camo-haftone</title><g id="Layer_3" data-name="Layer 3"><polygon class="cls-3" points="0 202.12 50.47 213.37 74.66 204.31 102.5 202.3 143.2 172.47 187.93 155.37 212.04 165.47 233.99 184.37 231.01 234.19 218.54 254.42 194.36 265.11 143.5 266.37 80 260.37 56.22 287.24 67.33 293.37 74 293.37 80.89 299.06 101.75 316.95 95.28 343.86 85.15 349.16 79.19 362.55 112.38 393.75 130.59 408.42 128.44 433.53 78.5 449.28 53.32 438.09 53 413.87 12.5 379.7 0.5 373.13 0 343.54 0 202.12 0 202.12"/><polygon class="cls-3" points="97 94.37 152 55.37 105.73 21.37 53.29 47.36 97 94.37 97 94.37"/><polygon class="cls-3" points="354.28 95.4 373.42 73.24 397.95 49.16 407 25.21 385.88 19.52 331.5 40.37 292.21 77.88 271.62 101.09 270.22 112.59 287.81 131.04 273.22 183.5 304.82 212.8 337.41 196.21 352.65 184.46 373.07 183.37 384.52 136.72 354.78 125.94 347.75 110.54 354.28 95.4 354.28 95.4"/><polygon class="cls-3" points="482.75 0.38 470 24.62 482.02 35.45 486.5 49.37 496 79.37 481 108.54 500.75 126.32 530.5 111 577.06 103.52 602.02 77.46 612 0.37 482.75 0.38 482.75 0.38"/><polygon class="cls-3" points="750 0 780.19 15.39 811 0.37 750 0 750 0"/><polygon class="cls-3" points="641 80.37 644.83 102.37 661 114.7 687 85.83 671.52 58.37 641 80.37 641 80.37"/><polygon class="cls-3" points="0 470.37 4.5 507.32 28.39 545.96 42.88 545.97 51.44 536.98 71.97 520.62 112.07 521.09 137.48 591.11 93.75 604.37 90.5 641.87 136.29 640.47 174.64 636.09 175.08 675.92 146.68 706.31 126 715.37 99.05 717.66 57.1 731.37 9.49 719.8 0.5 704.37 1.32 674.69 12 655.87 9.5 633.87 0.5 627.44 0 600.68 0 470.37 0 470.37"/><polygon class="cls-3" points="194.5 541.78 228.75 535.5 264.33 529.48 303.7 542.18 327.65 514.7 326.89 478.71 301.4 449.5 297.29 409.77 281.7 370.54 316.3 318.5 329.08 332.54 346.79 348.94 369.55 357.87 395.18 359.18 430 385.37 469.05 390.59 532 428.87 532 449.85 546.85 462.19 585.5 467.27 606 462.87 606 443.37 600.1 428.44 596.57 402.37 592.98 360.66 581.6 325.33 599 291.62 579.41 262.37 550.25 282.12 536 316.87 457.15 338.44 423 322.29 399.04 289.75 313.28 280.43 236.92 291.89 218.77 329.47 194.8 360.98 176 389.14 176 410.37 187 426.69 187 466.76 193.78 506.33 194.5 541.78 194.5 541.78"/><polygon class="cls-3" points="276 628.37 248.33 638.35 237 664.75 256.67 685 286.06 692.77 317.67 707.35 333.49 712.37 346.33 715.83 356 688.89 343.21 664.33 276 628.37 276 628.37"/><polygon class="cls-3" points="399 428.37 366.2 458.01 360 479.86 374 493.37 383.06 508.62 386 534 385.29 551.56 394.38 573.12 404.89 586.54 400.69 607.33 397 625.91 404.8 645.91 410.5 662.87 421.08 681.31 453.76 710.37 496.69 698.39 513.25 659.12 518.92 617.59 496.91 581 458.63 576.06 423.91 593.98 438.51 568.01 464.81 536.85 466.17 509.7 482.15 490.37 493.73 450.82 446.18 440.28 422.67 428.21 399 428.37 399 428.37"/><polygon class="cls-3" points="534 530.37 519.2 535.43 528.65 548.59 542.61 540.56 534 530.37 534 530.37"/><polygon class="cls-3" points="494.8 161.82 474.37 179.07 449.05 194.54 436.23 253.35 494.49 285.13 509.46 241.6 556.12 210.2 585.83 217.37 612.92 215.56 665.85 207.36 682.67 235.71 709.28 242.52 771.73 250.56 786.13 273.49 809.36 296.55 852.37 265.28 860.72 240.5 884.38 241.85 910 253.04 937.48 255.38 955.5 296.28 927.93 309.24 899.58 315.85 852.94 340.37 803.68 357.61 820.99 396.67 844.82 411.19 852.04 439.54 858.17 464.87 889.01 467.16 943.93 450.82 929.73 405.48 888.33 372.45 932.12 346.37 960.77 360.38 985.78 384.7 1014.39 351.31 997 331.04 1018.71 306.67 1040.78 302.44 1066.71 291.46 1130.67 299.33 1137 310.02 1134.78 321.83 1122.84 346.42 1144.31 363.22 1153.51 336.7 1154 310.37 1166.6 303.14 1173.84 293.05 1181 236.02 1181 212.33 1200.81 193.24 1256.64 203.01 1283.21 200.37 1281.22 165.29 1241.78 113.11 1208.06 73.48 1197.16 50.49 1187.18 17.08 1144.19 0.27 1080.67 0 1093.66 14.52 1111.2 18.14 1133.93 43.26 1141.53 85.78 1146.34 120.93 1127.61 155.58 1096.74 177.29 1062.18 206.35 1032 237.37 992.27 233.4 971.56 203.59 893.04 179.47 888.67 145.71 925.19 125.61 940.81 112.01 934.89 90.42 928.64 55.92 1005.77 63.37 1064.25 34.08 1034.15 6 1007.95 2.05 949.14 1.19 900.65 0.48 893.33 0.37 889.53 20.13 869.5 49.27 833.78 68.05 796.2 80.78 798.68 119.3 814.98 134.74 828.07 150.85 804.84 213.16 770.14 197.32 758.67 182.54 753.04 175.09 751.04 168 740.79 161.05 730.74 156.04 704 160.37 675.73 182.91 638.42 167.63 627.78 154.76 605.4 154.29 570.89 171.06 532.14 170.99 494.8 161.82 494.8 161.82"/><polygon class="cls-3" points="1018 185.37 1044.17 178.43 1050 155.37 1006.89 134.87 977.72 164.23 1018 185.37 1018 185.37"/><polygon class="cls-3" points="1259.5 0.66 1246.64 34.47 1269.33 63.37 1310.44 69.66 1328.23 82.42 1329 89.37 1343.49 98.21 1363.35 105.81 1381.1 103 1385.63 71.08 1372.54 62.15 1355.65 51.7 1325.52 31.11 1299.78 2.41 1259.5 0.66 1259.5 0.66"/><polygon class="cls-3" points="1373.33 1.37 1412.22 26.37 1448.67 1.37 1373.33 1.37 1373.33 1.37"/><polygon class="cls-3" points="0 888.62 26.5 859.34 29.75 841.04 34.47 823.78 56.58 792.08 78.39 767.71 84.54 804.05 96.56 822.32 110.04 839.58 182.6 826.28 198.24 814.08 208.07 793.88 237.38 777.95 268.48 799.84 301.98 815.21 324.07 847.85 330.17 884.87 362.95 871.73 388.56 841.56 422.16 819.16 459.39 812.27 497.48 808.97 505.63 841 468.08 842.27 430.38 849.12 417.33 884.37 389.79 911.56 359.58 923.34 356 940.15 367.72 954.95 377.73 985.34 342.38 993.37 278.62 962.67 283 916.91 249.63 902.04 230.67 904.37 217.4 918.56 168.55 917.37 129.39 923.41 90.95 923.96 33.41 965.79 0.5 974.84 0 960.14 0 930.03 0 888.62 0 888.62"/><polygon class="cls-3" points="665.08 263.21 648 286.34 648 302.64 656.73 314.43 670 339.5 670.52 368.45 675 382.64 675 400.67 669.01 428.92 649.98 456.48 646.44 468.19 631.51 478.72 619.88 479.83 617.92 495.95 597.27 524.93 627.33 568.37 657.31 568.14 685.16 568.37 712.66 578.66 698.67 601.37 669.58 606.79 645.59 622.27 616.56 628.37 588 620.37 564 635.97 574.72 661.12 539.68 707.52 517.8 730.56 522.7 740.28 522.09 746.94 530.7 754.93 555.22 767.49 568.14 781.41 581.5 798.37 637.46 800.93 670.14 796.51 684.32 769.16 719.7 721.07 741 704.61 751.67 678.69 782.07 678.54 777 705.27 776.68 736.77 771.28 768.43 753.42 792.37 719.04 812.05 721.25 867.21 749.87 872.9 778.38 857.98 799.89 833.48 814.67 803.71 849.48 801.26 871.27 779.97 863.98 717.03 821.2 677.5 802.18 652.9 820.55 630.63 882.72 613.49 862.38 549.19 851.28 517.38 846.02 490.05 785.33 485.46 764 505.7 736.98 514.81 676.78 525.03 666 478.7 694.74 473.92 724.67 461.37 779.09 440.74 770.24 384.33 716.96 358.15 711.67 328.04 697.22 301.12 690.31 271.31 665.08 263.21 665.08 263.21"/><polygon class="cls-3" points="1479.83 204.5 1460 157.88 1439.41 122.62 1403.58 157.72 1368.16 189.24 1368.81 215.12 1376.33 237.69 1357.21 250.45 1335.33 230.94 1290 233.67 1290 262.37 1271.05 288.92 1250.23 299.14 1224.15 303.93 1204.03 315.76 1197.23 348.67 1188.14 369.05 1165.13 382.56 1168 433.04 1191 440.37 1213.33 421.04 1234.42 409 1254.33 394.04 1324.37 323.08 1381.1 321.82 1430.85 312.1 1457.66 316.67 1455.3 342.82 1463.95 364.72 1471.73 375.09 1479.83 385.04 1480.67 201.71"/><polygon class="cls-3" points="1385.67 414.04 1402.13 398.83 1409 378.07 1371.41 361.37 1355 396.85 1365.78 416.82 1385.67 414.04 1385.67 414.04"/><polygon class="cls-3" points="1480 467.37 1441.58 489 1399.86 499.65 1375.09 456.11 1359.53 449.37 1333.97 459.37 1284.62 449.64 1254.99 467.37 1260.58 486.04 1263.33 507.33 1277.43 547.64 1253.51 556.17 1220.67 548.59 1204.67 546.37 1191.18 539.31 1164.69 537.23 1120.84 538.33 1087 509.33 1105.08 465.89 1106.63 445.9 1090.67 431.7 1053.94 425.85 1019 442.87 975.63 455.41 965 498.07 957.67 514.37 943.35 530.66 963.63 555.16 993.75 525.06 1041.33 526.71 1049.37 566.57 1079.33 597.04 1168.07 627.88 1160.17 667.71 1158 715.15 1144.01 754.27 1129.83 772.04 1128.33 794.71 1103.65 830.89 1123 865.04 1153.97 948.96 1103.13 961.29 1061.33 982.37 1047.06 1022.84 1016.13 1054.87 992.58 1090.37 1019.33 1117.04 1047 1141.04 1059.42 1100.43 1076 1057.04 1121.13 1043.37 1159.83 1024.11 1171.2 1002.33 1166.33 979.37 1238.91 951.01 1242.03 942.85 1251.59 938.03 1253.06 920.47 1221.49 889.89 1199.85 847.63 1166.55 819.5 1157.59 779.29 1198.5 757.71 1241.33 766.71 1276.44 765.54 1289.33 748.21 1312.96 745.05 1354.94 764.55 1377.56 778.41 1400.72 782.28 1438.65 805.08 1470.27 792.93 1443.04 755.13 1438.34 728.15 1428.68 711.03 1391.04 689.34 1346.97 680.23 1305.1 694.01 1234.28 722.09 1226.19 676.82 1234 641.37 1317.98 622.95 1314.67 578.37 1302.17 546.21 1341.12 570.9 1360.06 580.85 1375.53 593.59 1409.43 623.17 1453.74 636.55 1480.5 625.22 1480 571.74 1480 467.37 1480 467.37"/><polygon class="cls-3" points="1479 671.87 1473.82 684.68 1469.89 696.1 1479 717.37 1479 671.87 1479 671.87"/><polygon class="cls-3" points="1481 1122.87 1446.27 1104.3 1424.27 1078.29 1410.76 1049.33 1423.17 1025.87 1453.33 1029.7 1468.33 1044.04 1480 1051.61 1480.5 1087.12 1481 1122.87 1481 1122.87"/><polygon class="cls-3" points="1479.17 887.54 1467.4 893 1458.35 904.02 1447.01 907.36 1431.34 915.04 1403.06 902.12 1382.43 882.5 1360.39 864.69 1336.8 839.04 1315.67 828.33 1287.72 816.21 1268.2 801.37 1261.26 821.56 1257.11 849.52 1280.33 870.71 1327.46 903.71 1341.41 931.58 1372.44 937.37 1434.56 938.52 1445.5 948.71 1456.77 959.61 1468.98 970.8 1480.33 976.71 1480.51 928.42 1479.17 887.54 1479.17 887.54"/><polygon class="cls-3" points="0 1367.37 44.57 1296.37 69.75 1305.62 94.35 1311.37 115.38 1305.02 128 1281.87 144.31 1264.41 158 1239.86 155.77 1215.35 139 1191.87 92 1182.87 72.37 1221.61 63.14 1247.73 42.46 1259.22 1.5 1221.87 0 1367.37 0 1367.37"/><polygon class="cls-3" points="475.5 1430.62 495.35 1408.37 520.13 1399.51 562.69 1374.56 600.72 1343.38 594.24 1315.78 577.65 1297.93 531.37 1283.36 493 1248.87 482.24 1198.01 476.31 1173.2 494.84 1157.62 515.19 1141 532.91 1133.11 533.69 1156.8 536.5 1183.87 614.5 1232.87 692.64 1256.9 672 1293.87 647.76 1339.37 631 1358.37 614 1378.87 613 1404.37 597.99 1418.88 538.29 1419.89 507.44 1427.83 475.5 1430.62 475.5 1430.62"/><polygon class="cls-3" points="868.25 1430.57 877.1 1414.36 884.75 1408.26 890.63 1396.74 922.49 1377.74 947.83 1378.04 971.85 1384.25 988.16 1376.37 1007.57 1378.69 1032.77 1406.03 1041.61 1421.86 1048.62 1430.37 1018.69 1430.4 962.24 1430.46 868.25 1430.57 868.25 1430.57"/><polygon class="cls-3" points="0 1057.12 50.54 1050.85 67.74 1031.54 102.69 1023.68 126.71 1029.53 138.56 1058.85 153.66 1080.37 180.88 1079.75 178.85 1038.95 156.74 1024.91 151.21 999.47 188.51 965.93 236.42 968.96 255 1023.32 291.96 1066.86 312 1082.5 339.9 1082.99 385.37 1055.59 432 1068.87 422 1093.87 417 1129.02 399.83 1145.53 378.5 1130.37 334 1111.37 316.25 1160.12 330.17 1178.88 323.46 1207.91 304.21 1244.88 321.75 1261.12 341.36 1282.85 395.5 1287.87 426.44 1286.99 452.58 1303.55 460.58 1328.81 432.91 1341.81 384 1348.37 358.33 1340.48 331.12 1338.37 305.07 1338.37 275.25 1330.37 249.77 1329.4 234.17 1351.22 212.76 1360.8 186 1371.68 161.19 1381.19 147.81 1361.12 177.5 1312.37 220.5 1280.53 231.24 1247.87 240.75 1227.37 256.71 1173.57 287.19 1124.57 245.95 1103.25 209.31 1142.78 154 1143.7 129.03 1128.76 98.4 1120.86 46.93 1119.76 0.5 1117.34 0 1084.22 0 1057.12 0 1057.12"/><polygon class="cls-3" points="546 984.37 504.76 990.39 481.76 1025.55 453 1050.36 481.94 1072.18 500.46 1065.39 516.42 1047.35 540.13 1021.67 578.4 1025.35 602 1056.87 625.16 1090.44 627.93 1131.38 651.02 1168.51 687.71 1189.19 734.85 1207.05 771.5 1215.37 762.94 1252.93 742.61 1258.55 729 1271.37 735.09 1305.32 752.95 1316.89 756.25 1335.62 759.15 1358.39 763.23 1366.05 776.06 1373.74 815.48 1377.19 806.68 1339.3 818 1299.65 832.62 1283.24 849.2 1270.2 830.81 1235.05 802.25 1201.62 812.09 1164.55 801.96 1122.28 785 1081.64 803.24 1047.53 814.09 1033.43 814.89 1015.12 779.78 1023.89 760.63 1028.37 738.62 1018.12 692.72 1017.87 679.53 1056.65 649.17 1059.04 659 1021.87 683.95 996.98 667.07 957.66 626.65 955.87 589.49 976.72 546 984.37 546 984.37"/><polygon class="cls-3" points="1140.19 1430.87 1180.45 1403.31 1235.51 1396.02 1257 1381.37 1254.01 1355.5 1219.28 1320.3 1242 1280.53 1260.17 1271.23 1279.59 1289.81 1296.81 1304.56 1305 1332.89 1280.37 1370.4 1305 1405.37 1320.7 1407.28 1330.88 1416.62 1351.5 1430.37 1140.19 1430.87 1140.19 1430.87"/><polygon class="cls-3" points="1481 1368.37 1459.24 1375.65 1445.36 1394.04 1401.19 1404.82 1373 1373.37 1383.99 1356.07 1405.2 1345.68 1427 1307.35 1391.31 1278.78 1373.19 1240.81 1363.79 1200.37 1349.21 1235.39 1306.04 1245.45 1283.41 1211.48 1295 1191.37 1318.5 1181.37 1329.31 1131.94 1283.37 1120.65 1260 1156.47 1257.11 1177.37 1258.84 1203.08 1225.3 1237.05 1172.92 1233.62 1125.04 1220.95 1079.56 1218.84 1068.45 1242.21 1053.5 1257.87 1030.16 1262.54 1006.45 1277.68 972.78 1290.65 966.75 1270.75 970.61 1243.58 963.4 1218.35 941.21 1209.02 886.27 1190.34 856.89 1152.94 881.24 1110.46 899.83 1068.13 884.68 1022.58 885.22 966.97 890.59 942.98 913.75 939.37 952 928.97 923.73 893.59 904.86 893.37 885.68 904.62 873.02 924.56 846.93 930.37 805.25 944.48 794.65 963.3 772 965.87 748.13 963.43 721.97 969.29 708.17 927.66 718.29 910.04 744.22 901.89 797.41 900.32 818.07 857.8 857.08 823.63 904.32 800.94 953.89 795.6 945.2 701.01 941.23 675.73 929 652.37 966.25 647.87 983 667.37 997.5 686.87 997.12 707.21 1015.5 729.37 1054.46 755.58 1033 796.37 997.58 814.7 1036.15 823.39 1072 852.87 1059.94 895.14 1038.8 939.69 1019.25 984.23 972.39 998.57 953.43 1011.94 946.09 1037.59 933.5 1052.37 919.09 1069.43 930.78 1085.75 955.26 1109.23 955.81 1132.93 961.83 1160.72 975.2 1191.05 1003.35 1199.71 1052.94 1188.74 1068.44 1173.12 1094.2 1158.22 1118.67 1153.57 1136.69 1142.54 1163.29 1140.47 1186.1 1143.61 1200 1126.87 1219.39 1113.41 1254.5 1084.37 1257.11 1071.55 1265.7 1060.27 1282.46 1037.93 1328.75 1032.04 1344.75 1072.37 1359.5 1116.87 1381.27 1131.94 1406.09 1142.5 1447.81 1178.09 1466.35 1198.92 1482 1217.87 1481.61 1261.74 1481 1368.37 1481 1368.37"/><polygon class="cls-3" points="240.69 1430.66 247.46 1406.56 274.15 1403.37 296 1406.94 296.56 1418.12 306.11 1430.87 240.69 1430.66 240.69 1430.66"/><polygon class="cls-3" points="1478 202.12 1528.47 213.37 1552.66 204.31 1580.5 202.3 1621.2 172.47 1665.93 155.37 1690.04 165.47 1711.99 184.37 1709.01 234.19 1696.54 254.42 1672.36 265.11 1621.5 266.37 1558 260.37 1534.22 287.24 1545.33 293.37 1552 293.37 1558.88 299.06 1579.75 316.95 1573.28 343.86 1563.15 349.16 1557.19 362.55 1590.38 393.75 1608.59 408.42 1606.44 433.53 1556.51 449.28 1531.32 438.09 1531 413.87 1490.5 379.7 1478.5 373.13 1478 343.54 1478 202.12 1478 202.12"/><polygon class="cls-3" points="1575 94.37 1630 55.37 1583.73 21.37 1531.29 47.36 1575 94.37 1575 94.37"/><polygon class="cls-3" points="1832.28 95.4 1851.42 73.24 1875.95 49.16 1885 25.21 1863.88 19.52 1809.5 40.37 1770.21 77.88 1749.62 101.09 1748.22 112.59 1765.81 131.04 1751.22 183.5 1782.82 212.8 1815.41 196.21 1830.65 184.46 1851.07 183.37 1862.52 136.72 1832.78 125.94 1825.75 110.54 1832.28 95.4 1832.28 95.4"/><polygon class="cls-3" points="1960.75 0.38 1948 24.62 1960.02 35.45 1964.5 49.37 1974 79.37 1959 108.54 1978.75 126.32 2008.5 111 2055.06 103.52 2080.02 77.46 2090 0.37 1960.75 0.38 1960.75 0.38"/><polygon class="cls-3" points="2228 0 2258.19 15.39 2289 0.37 2228 0 2228 0"/><polygon class="cls-3" points="2119 80.37 2122.83 102.37 2139 114.7 2165 85.83 2149.52 58.37 2119 80.37 2119 80.37"/><polygon class="cls-3" points="1478 470.37 1482.5 507.32 1506.39 545.96 1520.88 545.97 1529.44 536.98 1549.97 520.62 1590.07 521.09 1615.48 591.11 1571.75 604.37 1568.5 641.87 1614.3 640.47 1652.64 636.09 1653.08 675.92 1624.68 706.31 1604 715.37 1577.05 717.66 1535.1 731.37 1487.49 719.8 1478.5 704.37 1479.33 674.69 1490 655.87 1487.5 633.87 1478.5 627.44 1478 600.68 1478 470.37 1478 470.37"/><polygon class="cls-3" points="1672.5 541.78 1706.75 535.5 1742.33 529.48 1781.7 542.18 1805.65 514.7 1804.89 478.71 1779.4 449.5 1775.29 409.77 1759.7 370.54 1794.3 318.5 1807.08 332.54 1824.79 348.94 1847.55 357.87 1873.18 359.18 1908 385.37 1947.05 390.59 2010 428.87 2010 449.85 2024.85 462.19 2063.5 467.27 2084 462.87 2084 443.37 2078.1 428.44 2074.57 402.37 2070.98 360.66 2059.6 325.33 2077 291.62 2057.41 262.37 2028.25 282.12 2014 316.87 1935.15 338.44 1901 322.29 1877.04 289.75 1791.28 280.43 1714.92 291.89 1696.77 329.47 1672.8 360.98 1654 389.14 1654 410.37 1665 426.69 1665 466.76 1671.78 506.33 1672.5 541.78 1672.5 541.78"/><polygon class="cls-3" points="1754 628.37 1726.33 638.35 1715 664.75 1734.67 685 1764.06 692.77 1795.67 707.35 1811.49 712.37 1824.33 715.83 1834 688.89 1821.21 664.33 1754 628.37 1754 628.37"/><polygon class="cls-3" points="1877 428.37 1844.2 458.01 1838 479.86 1852 493.37 1861.06 508.62 1864 534 1863.29 551.56 1872.38 573.12 1882.89 586.54 1878.69 607.33 1875 625.91 1882.8 645.91 1888.5 662.87 1899.08 681.31 1931.76 710.37 1974.68 698.39 1991.25 659.12 1996.92 617.59 1974.91 581 1936.63 576.06 1901.91 593.98 1916.51 568.01 1942.82 536.85 1944.17 509.7 1960.15 490.37 1971.73 450.82 1924.18 440.28 1900.67 428.21 1877 428.37 1877 428.37"/><polygon class="cls-3" points="2012 530.37 1997.2 535.43 2006.65 548.59 2020.61 540.56 2012 530.37 2012 530.37"/><polygon class="cls-3" points="1972.8 161.82 1952.37 179.07 1927.05 194.54 1914.23 253.35 1972.49 285.13 1987.46 241.6 2034.12 210.2 2063.83 217.37 2090.92 215.56 2143.85 207.36 2160.67 235.71 2187.28 242.52 2249.73 250.56 2264.13 273.49 2287.36 296.55 2330.37 265.28 2338.72 240.5 2362.38 241.85 2388 253.04 2415.48 255.38 2433.5 296.28 2405.93 309.24 2377.58 315.85 2330.94 340.37 2281.68 357.61 2298.99 396.67 2322.82 411.19 2330.04 439.54 2336.17 464.87 2367.01 467.16 2421.93 450.82 2407.73 405.48 2366.33 372.45 2410.12 346.37 2438.77 360.38 2463.78 384.7 2492.39 351.31 2475 331.04 2496.71 306.67 2518.78 302.44 2544.71 291.46 2608.67 299.33 2615 310.02 2612.78 321.83 2600.84 346.42 2622.31 363.22 2631.51 336.7 2632 310.37 2644.59 303.14 2651.84 293.05 2659 236.02 2659 212.33 2678.81 193.24 2734.64 203.01 2761.21 200.37 2759.22 165.29 2719.78 113.11 2686.06 73.48 2675.16 50.49 2665.18 17.08 2622.19 0.27 2558.67 0 2571.66 14.52 2589.2 18.14 2611.93 43.26 2619.53 85.78 2624.34 120.93 2605.61 155.58 2574.74 177.29 2540.18 206.35 2510 237.37 2470.27 233.4 2449.56 203.59 2371.04 179.47 2366.67 145.71 2403.19 125.61 2418.81 112.01 2412.89 90.42 2406.64 55.92 2483.77 63.37 2542.25 34.08 2512.15 6 2485.95 2.05 2427.14 1.19 2378.65 0.48 2371.33 0.37 2367.53 20.13 2347.5 49.27 2311.78 68.05 2274.2 80.78 2276.68 119.3 2292.98 134.74 2306.07 150.85 2282.84 213.16 2248.14 197.32 2236.67 182.54 2231.04 175.09 2229.04 168 2218.79 161.05 2208.74 156.04 2182 160.37 2153.73 182.91 2116.42 167.63 2105.78 154.76 2083.4 154.29 2048.89 171.06 2010.14 170.99 1972.8 161.82 1972.8 161.82"/><polygon class="cls-3" points="2496 185.37 2522.17 178.43 2528 155.37 2484.89 134.87 2455.72 164.23 2496 185.37 2496 185.37"/><polygon class="cls-3" points="2737.5 0.66 2724.64 34.47 2747.33 63.37 2788.44 69.66 2806.23 82.42 2807 89.37 2821.49 98.21 2841.35 105.81 2859.1 103 2863.63 71.08 2850.54 62.15 2833.65 51.7 2803.52 31.11 2777.78 2.41 2737.5 0.66 2737.5 0.66"/><polygon class="cls-3" points="2851.33 1.37 2890.22 26.37 2926.67 1.37 2851.33 1.37 2851.33 1.37"/><polygon class="cls-3" points="1478 888.62 1504.5 859.34 1507.75 841.04 1512.47 823.78 1534.58 792.08 1556.38 767.71 1562.54 804.05 1574.56 822.32 1588.04 839.58 1660.6 826.28 1676.24 814.08 1686.07 793.88 1715.38 777.95 1746.48 799.84 1779.98 815.21 1802.07 847.85 1808.17 884.87 1840.95 871.73 1866.56 841.56 1900.16 819.16 1937.39 812.27 1975.48 808.97 1983.63 841 1946.08 842.27 1908.38 849.12 1895.33 884.37 1867.79 911.56 1837.58 923.34 1834 940.15 1845.72 954.95 1855.73 985.34 1820.38 993.37 1756.62 962.67 1761 916.91 1727.63 902.04 1708.67 904.37 1695.4 918.56 1646.55 917.37 1607.39 923.41 1568.95 923.96 1511.41 965.79 1478.5 974.84 1478 960.14 1478 930.03 1478 888.62 1478 888.62"/><polygon class="cls-3" points="2143.08 263.21 2126 286.34 2126 302.64 2134.73 314.43 2148 339.5 2148.52 368.45 2153 382.64 2153 400.67 2147.01 428.92 2127.98 456.48 2124.44 468.19 2109.51 478.72 2097.88 479.83 2095.92 495.95 2075.27 524.93 2105.33 568.37 2135.31 568.14 2163.16 568.37 2190.66 578.66 2176.67 601.37 2147.58 606.79 2123.59 622.27 2094.56 628.37 2066 620.37 2042 635.97 2052.72 661.12 2017.68 707.52 1995.81 730.56 2000.69 740.28 2000.09 746.94 2008.7 754.93 2033.22 767.49 2046.14 781.41 2059.5 798.37 2115.46 800.93 2148.14 796.51 2162.32 769.16 2197.7 721.07 2219 704.61 2229.67 678.69 2260.07 678.54 2255 705.27 2254.68 736.77 2249.28 768.43 2231.42 792.37 2197.04 812.05 2199.25 867.21 2227.86 872.9 2256.38 857.98 2277.89 833.48 2292.67 803.71 2327.48 801.26 2349.27 779.97 2341.98 717.03 2299.2 677.5 2280.18 652.9 2298.55 630.63 2360.72 613.49 2340.38 549.19 2329.28 517.38 2324.03 490.05 2263.33 485.46 2242 505.7 2214.98 514.81 2154.78 525.03 2144 478.7 2172.74 473.92 2202.67 461.37 2257.09 440.74 2248.24 384.33 2194.96 358.15 2189.67 328.04 2175.22 301.12 2168.31 271.31 2143.08 263.21 2143.08 263.21"/><polygon class="cls-3" points="2957.83 204.5 2938 157.88 2917.41 122.62 2881.58 157.72 2846.16 189.24 2846.81 215.12 2854.33 237.69 2835.21 250.45 2813.33 230.94 2768 233.67 2768 262.37 2749.05 288.92 2728.23 299.14 2702.15 303.93 2682.03 315.76 2675.24 348.67 2666.14 369.05 2643.13 382.56 2646 433.04 2669 440.37 2691.33 421.04 2712.42 409 2732.33 394.04 2802.37 323.08 2859.1 321.82 2908.85 312.1 2935.66 316.67 2933.3 342.82 2941.95 364.72 2949.73 375.09 2957.83 385.04 2958.67 201.71"/><polygon class="cls-3" points="2863.67 414.04 2880.13 398.83 2887 378.07 2849.41 361.37 2833 396.85 2843.78 416.82 2863.67 414.04 2863.67 414.04"/><polygon class="cls-3" points="2958 467.37 2919.58 489 2877.86 499.65 2853.09 456.11 2837.53 449.37 2811.97 459.37 2762.62 449.64 2732.99 467.37 2738.58 486.04 2741.33 507.33 2755.43 547.64 2731.51 556.17 2698.67 548.59 2682.67 546.37 2669.18 539.31 2642.69 537.23 2598.84 538.33 2565 509.33 2583.08 465.89 2584.63 445.9 2568.67 431.7 2531.94 425.85 2497 442.87 2453.63 455.41 2443 498.07 2435.67 514.37 2421.35 530.66 2441.64 555.16 2471.75 525.06 2519.33 526.71 2527.36 566.57 2557.33 597.04 2646.07 627.88 2638.17 667.71 2636 715.15 2622.01 754.27 2607.83 772.04 2606.33 794.71 2581.65 830.89 2601 865.04 2631.97 948.96 2581.13 961.29 2539.33 982.37 2525.06 1022.84 2494.13 1054.87 2470.58 1090.37 2497.33 1117.04 2525 1141.04 2537.42 1100.43 2554 1057.04 2599.13 1043.37 2637.83 1024.11 2649.2 1002.33 2644.33 979.37 2716.91 951.01 2720.03 942.85 2729.59 938.03 2731.06 920.47 2699.49 889.89 2677.85 847.63 2644.55 819.5 2635.59 779.29 2676.5 757.71 2719.33 766.71 2754.45 765.54 2767.33 748.21 2790.96 745.05 2832.94 764.55 2855.56 778.41 2878.72 782.28 2916.65 805.08 2948.27 792.93 2921.04 755.13 2916.34 728.15 2906.68 711.03 2869.04 689.34 2824.97 680.23 2783.1 694.01 2712.28 722.09 2704.2 676.82 2712 641.37 2795.98 622.95 2792.67 578.37 2780.17 546.21 2819.12 570.9 2838.06 580.85 2853.53 593.59 2887.43 623.17 2931.74 636.55 2958.5 625.22 2958 571.74 2958 467.37 2958 467.37"/><polygon class="cls-3" points="2957 671.87 2951.82 684.68 2947.89 696.1 2957 717.37 2957 671.87 2957 671.87"/><polygon class="cls-3" points="2959 1122.87 2924.27 1104.3 2902.27 1078.29 2888.76 1049.33 2901.17 1025.87 2931.33 1029.7 2946.33 1044.04 2958 1051.61 2958.5 1087.12 2959 1122.87 2959 1122.87"/><polygon class="cls-3" points="2957.17 887.54 2945.4 893 2936.35 904.02 2925.01 907.36 2909.34 915.04 2881.06 902.12 2860.43 882.5 2838.39 864.69 2814.8 839.04 2793.67 828.33 2765.72 816.21 2746.2 801.37 2739.26 821.56 2735.11 849.52 2758.33 870.71 2805.46 903.71 2819.41 931.58 2850.44 937.37 2912.56 938.52 2923.5 948.71 2934.77 959.61 2946.98 970.8 2958.33 976.71 2958.51 928.42 2957.17 887.54 2957.17 887.54"/><polygon class="cls-3" points="1478 1367.37 1522.57 1296.37 1547.75 1305.62 1572.35 1311.37 1593.38 1305.02 1606 1281.87 1622.31 1264.41 1636 1239.86 1633.77 1215.35 1617 1191.87 1570 1182.87 1550.37 1221.61 1541.14 1247.73 1520.46 1259.22 1479.5 1221.87 1478 1367.37 1478 1367.37"/><polygon class="cls-3" points="1953.5 1430.62 1973.35 1408.37 1998.13 1399.51 2040.69 1374.56 2078.72 1343.38 2072.24 1315.78 2055.65 1297.93 2009.37 1283.36 1971 1248.87 1960.24 1198.01 1954.31 1173.2 1972.84 1157.62 1993.19 1141 2010.91 1133.11 2011.69 1156.8 2014.5 1183.87 2092.5 1232.87 2170.64 1256.9 2150 1293.87 2125.76 1339.37 2109 1358.37 2092 1378.87 2091 1404.37 2075.99 1418.88 2016.29 1419.89 1985.44 1427.83 1953.5 1430.62 1953.5 1430.62"/><polygon class="cls-3" points="2346.25 1430.57 2355.1 1414.36 2362.75 1408.26 2368.63 1396.74 2400.49 1377.74 2425.83 1378.04 2449.85 1384.25 2466.16 1376.37 2485.57 1378.69 2510.77 1406.03 2519.61 1421.86 2526.62 1430.37 2496.69 1430.4 2440.24 1430.46 2346.25 1430.57 2346.25 1430.57"/><polygon class="cls-3" points="1478 1057.12 1528.54 1050.85 1545.74 1031.54 1580.69 1023.68 1604.71 1029.53 1616.56 1058.85 1631.66 1080.37 1658.88 1079.75 1656.85 1038.95 1634.74 1024.91 1629.21 999.47 1666.52 965.93 1714.42 968.96 1733 1023.32 1769.96 1066.86 1790 1082.5 1817.9 1082.99 1863.37 1055.59 1910 1068.87 1900 1093.87 1895 1129.02 1877.83 1145.53 1856.5 1130.37 1812 1111.37 1794.25 1160.12 1808.17 1178.88 1801.46 1207.91 1782.21 1244.88 1799.75 1261.12 1819.36 1282.85 1873.5 1287.87 1904.44 1286.99 1930.58 1303.55 1938.58 1328.81 1910.91 1341.81 1862 1348.37 1836.33 1340.48 1809.12 1338.37 1783.07 1338.37 1753.25 1330.37 1727.77 1329.4 1712.17 1351.22 1690.76 1360.8 1664 1371.68 1639.19 1381.19 1625.81 1361.12 1655.5 1312.37 1698.5 1280.53 1709.24 1247.87 1718.75 1227.37 1734.71 1173.57 1765.19 1124.57 1723.95 1103.25 1687.31 1142.78 1632 1143.7 1607.03 1128.76 1576.4 1120.86 1524.93 1119.76 1478.5 1117.34 1478 1084.22 1478 1057.12 1478 1057.12"/><polygon class="cls-3" points="2024 984.37 1982.76 990.39 1959.76 1025.55 1931 1050.36 1959.94 1072.18 1978.46 1065.39 1994.42 1047.35 2018.13 1021.67 2056.4 1025.35 2080 1056.87 2103.16 1090.44 2105.93 1131.38 2129.02 1168.51 2165.71 1189.19 2212.85 1207.05 2249.5 1215.37 2240.94 1252.93 2220.61 1258.55 2207 1271.37 2213.09 1305.32 2230.95 1316.89 2234.25 1335.62 2237.15 1358.39 2241.23 1366.05 2254.06 1373.74 2293.48 1377.19 2284.68 1339.3 2296 1299.65 2310.62 1283.24 2327.2 1270.2 2308.81 1235.05 2280.25 1201.62 2290.09 1164.55 2279.96 1122.28 2263 1081.64 2281.24 1047.53 2292.09 1033.43 2292.89 1015.12 2257.78 1023.89 2238.63 1028.37 2216.62 1018.12 2170.72 1017.87 2157.53 1056.65 2127.17 1059.04 2137 1021.87 2161.95 996.98 2145.07 957.66 2104.65 955.87 2067.49 976.72 2024 984.37 2024 984.37"/><polygon class="cls-3" points="2618.19 1430.87 2658.45 1403.31 2713.51 1396.02 2735 1381.37 2732.01 1355.5 2697.28 1320.3 2720 1280.53 2738.17 1271.23 2757.59 1289.81 2774.81 1304.56 2783 1332.89 2758.37 1370.4 2783 1405.37 2798.7 1407.28 2808.88 1416.62 2829.5 1430.37 2618.19 1430.87 2618.19 1430.87"/><polygon class="cls-3" points="2959 1368.37 2937.24 1375.65 2923.36 1394.04 2879.19 1404.82 2851 1373.37 2861.99 1356.07 2883.2 1345.68 2905 1307.35 2869.31 1278.78 2851.19 1240.81 2841.79 1200.37 2827.21 1235.39 2784.04 1245.45 2761.41 1211.48 2773 1191.37 2796.5 1181.37 2807.31 1131.94 2761.37 1120.65 2738 1156.47 2735.11 1177.37 2736.84 1203.08 2703.3 1237.05 2650.92 1233.62 2603.04 1220.95 2557.56 1218.84 2546.45 1242.21 2531.5 1257.87 2508.16 1262.54 2484.45 1277.68 2450.78 1290.65 2444.75 1270.75 2448.61 1243.58 2441.4 1218.35 2419.21 1209.02 2364.27 1190.34 2334.89 1152.94 2359.24 1110.46 2377.83 1068.13 2362.68 1022.58 2363.22 966.97 2368.59 942.98 2391.75 939.37 2430 928.97 2401.73 893.59 2382.86 893.37 2363.68 904.62 2351.02 924.56 2324.93 930.37 2283.25 944.48 2272.65 963.3 2250 965.87 2226.13 963.43 2199.97 969.29 2186.17 927.66 2196.29 910.04 2222.22 901.89 2275.41 900.32 2296.07 857.8 2335.08 823.63 2382.32 800.94 2431.89 795.6 2423.2 701.01 2419.23 675.73 2407 652.37 2444.25 647.87 2461 667.37 2475.5 686.87 2475.12 707.21 2493.5 729.37 2532.46 755.58 2511 796.37 2475.58 814.7 2514.15 823.39 2550 852.87 2537.94 895.14 2516.8 939.69 2497.25 984.23 2450.39 998.57 2431.43 1011.94 2424.09 1037.59 2411.5 1052.37 2397.09 1069.43 2408.78 1085.75 2433.26 1109.23 2433.81 1132.93 2439.83 1160.72 2453.2 1191.05 2481.34 1199.71 2530.94 1188.74 2546.44 1173.12 2572.2 1158.22 2596.67 1153.57 2614.69 1142.54 2641.29 1140.47 2664.1 1143.61 2678 1126.87 2697.39 1113.41 2732.5 1084.37 2735.11 1071.55 2743.7 1060.27 2760.46 1037.93 2806.75 1032.04 2822.75 1072.37 2837.5 1116.87 2859.27 1131.94 2884.09 1142.5 2925.81 1178.09 2944.35 1198.92 2960 1217.87 2959.61 1261.74 2959 1368.37 2959 1368.37"/><polygon class="cls-3" points="1718.69 1430.66 1725.46 1406.56 1752.15 1403.37 1774 1406.94 1774.56 1418.12 1784.11 1430.87 1718.69 1430.66 1718.69 1430.66"/></g></svg>
