<svg xmlns="http://www.w3.org/2000/svg" xmlns:xlink="http://www.w3.org/1999/xlink" x="0px" y="0px"
	 width="1399.447px" height="732.116px" viewBox="41.276 1261.794 1399.447 732.116"
	 enable-background="new 41.276 1261.794 1399.447 732.116" xml:space="preserve">
<path fill="#FFFFFF" d="M665.193,1643.96c-16.54,17.184-36.896,36.275-53.438,53.777c0.317,2.546,0.636,4.772,1.272,7
	c6.68,26.093,15.902,50.911,17.494,77.643c1.907,30.229-5.726,57.913-26.082,81.142c-11.77,13.364-27.355,21.002-44.215,21.319
	c-26.719,0.636-49.621-17.184-55.664-41.049c-4.771-18.775-2.862-37.229,1.271-55.367c6.361-28.002,18.767-53.14,37.534-75.097
	c6.997-7.954,13.678-15.909,20.993-23.864l-12.089-43.595c-6.997,5.41-12.723,11.138-17.812,17.184
	c-17.177,19.729-34.354,39.774-51.847,59.504c-6.681,7.639-13.359,14.955-20.357,22.275c0,7.318,2.863,16.864,5.089,23.547
	c6.044,20.684,7.952,38.502,9.543,59.504c0.637,6.684,0.954,13.364,0.954,20.047c0.636,39.457-6.68,77.005-28.945,110.735
	c-20.675,31.819-62.343,42.64-92.241,30.229c-10.496-4.454-19.084-10.817-25.128-20.363c-14.949-23.548-17.812-49.321-11.451-75.732
	c7.952-33.729,24.81-63.005,46.757-89.416c14.312-17.183,29.264-34.047,45.167-49.957c11.133-11.138,11.769-7.638,7.315-26.411
	c-2.862-12.093-6.36-27.365-9.225-39.14c-2.227,3.5-3.182,4.772-3.816,6.364c-1.591,3.5-3.498,7-5.089,10.182
	c-18.447,40.094-40.715,77.959-65.843,114.236c-14.631,20.683-23.538,32.774-41.35,53.14l-30.536,33.729
	c-20.039,19.094-29.899,32.775-58.844,54.096c-18.131,13.363-33.717,24.184-54.074,25.773c-30.853,2.546-58.526-9.547-77.293-33.093
	c-18.448-23.865-26.4-51.549-29.899-81.142c-3.499-28.64-1.908-36.595,0-65.232c0.955-10.501,3.499-30.229,6.997-51.55
	c3.499-19.729,12.405-44.23,18.766-63.321c15.586-42.003,31.49-73.823,53.755-112.327l22.265-36.911
	c4.77-7.638,10.179-15.272,15.586-22.274c9.224-12.093,19.403-23.547,28.308-35.957c10.497-13.047,20.993-23.547,32.126-34.686
	c10.496-10.5,15.904-15.909,27.355-25.138c13.678-10.819,32.761-22.91,49.938-25.774c24.492-4.137,45.805,4.455,62.025,24.819
	c10.497,14.001,13.041,22.593,14.632,40.095c1.272,14.955-2.227,34.048-6.043,48.366c-5.727,21.318-10.814,37.866-20.676,57.595
	c-8.905,17.502-19.084,34.366-31.49,49.641c-2.544,3.5-5.726,6.684-8.905,9.545c-7.635,6.684-19.083,6.047-26.083-1.271
	c-1.591-1.591-3.181-4.138-2.862-7.001c0.318-4.137,0.954-7.954,2.544-11.772c2.544-6.684,5.408-13.364,8.588-19.729
	c12.087-25.138,22.266-50.912,30.536-77.324c4.452-14.318,7.951-28.957,3.815-43.912c-4.452-16.228-17.176-25.456-33.397-20.683
	c-12.724,3.818-27.037,13.683-36.579,22.593c-13.359,13.047-22.901,23.229-35.625,39.775c-2.227,2.545-4.453,5.092-6.043,7.955
	c-30.536,44.229-57.891,90.369-83.019,137.463c-8.905,16.548-15.268,29.912-22.901,48.05c-2.544,6.684-8.588,20.047-13.359,35.32
	c-9.542,30.865-11.769,52.82-11.769,85.597c0,29.912,2.544,64.276,11.132,86.552c6.998,24.185,36.579,39.457,60.117,32.457
	c13.359-4.138,26.083-9.863,36.896-18.455c24.492-19.409,48.03-39.457,67.115-64.596c16.222-21.318,32.761-42.319,47.076-64.913
	c27.99-42.957,54.391-86.868,80.474-130.78c3.182-5.409,6.044-10.818,8.588-16.547c12.088-23.864,27.991-45.822,41.032-69.051
	c4.452-7.638,10.496-14.955,17.812-19.729c10.497-7,22.9-0.954,30.854,4.772c2.862,2.228,5.089,7,4.452,10.501
	c-0.636,3.818-1.591,6.045-3.499,9.229c-4.135,7.638-8.588,14.638-13.359,21.957c-5.089,7.954-11.132,15.592-15.902,23.863
	c-12.088,20.685-13.996,42.321-6.997,64.914c1.591,5.093,3.499,9.864,5.726,15.909c3.499-3.183,6.681-5.409,9.226-7.954
	c15.268-15.273,28.627-32.14,41.985-49.002c10.496-13.048,20.992-26.094,32.443-38.504c13.041-13.683,22.901-29.273,32.443-45.504
	c5.407-9.545,10.813-19.092,16.223-28.956c0.955-1.591,1.908-3.5,2.862-4.771c9.543-13.685,25.764-15.273,38.486,0.636
	c1.592,1.909,1.908,5.41,1.592,8.271c0,6.364-5.727,13.364-9.226,18.457c-4.452,6.683-6.68,10.817-11.45,19.408
	c-7.315,14.001-12.088,22.91-17.812,35.004c-3.499,7.954-1.591,17.5,0.955,26.093c1.59,5.409,3.498,12.409,6.359,19.728
	c6.997-6.683,13.359-13.683,18.767-18.773c13.041-12.729,26.083-25.456,39.441-37.866c20.039-18.455,35.625-39.775,48.03-63.959
	c5.09-10.183,10.179-18.455,15.586-28.957c9.543-16.547,17.495-24.82,28.944-33.411c19.402-14.319,41.351-8.909,55.665,1.591
	c3.499,2.546,6.68,5.409,8.905,8.909c6.045,9.546,7.636,20.684,7.315,31.82c-0.954,24.819-6.36,43.274-16.539,65.867
	c-6.998,15.593-19.722,15.593-31.172,5.409c-2.863-2.545-3.815-5.728-3.182-8.909c0.955-4.454,2.545-9.229,4.452-13.363
	c4.453-9.546,7.315-19.729,8.589-30.23c0.954-6.363,0-12.409-3.183-18.137c-2.861-5.409-14.949-8.592-20.355-6.045
	c-4.137,1.591-8.271,5.092-11.133,7.955c-8.906,9.228-15.903,29.272-20.039,41.049c-10.18,26.729-13.359,44.229-21.312,74.777
	c-4.452,15.909-5.726,32.14-5.089,48.366c0.955,16.864,17.495,28.638,34.035,25.456c8.588-1.591,16.222-5.092,23.22-10.5
	c17.176-13.047,33.079-27.365,46.756-44.55c8.589-10.819,31.172-37.229,31.172-37.229s-0.316-1.271-0.636-5.729
	c-0.955-22.592,5.09-41.366,11.769-62.05c3.5-10.818,7.951-23.864,12.724-34.366c17.495-33.729,35.942-48.049,52.483-58.23
	c7.951-5.093,17.176-6.364,26.082-6.364c4.452,0,9.859,0.955,13.679,3.5c6.043,4.138,12.087,6.683,19.721,7.318
	c8.589,0.954,15.904,5.409,21.948,12.728c10.812,13.684,15.902,26.729,14.312,44.229c-0.316,2.229,0,4.455,0,8.272
	c4.771-3.184,8.589-5.092,11.451-7.955c17.495-16.229,36.896-30.547,52.483-48.686c4.771-5.408,10.179-10.182,15.586-14.954
	c2.863-2.546,6.043-4.773,9.543-6.684c12.087-6.046,25.446,0.636,26.719,14c0.954,5.093-4.453,16.866-6.68,23.548
	c5.725-5.093,17.176-14.638,20.993-18.138c11.45-11.137,24.491-20.047,38.486-27.684c6.361-3.501,13.359-5.093,20.677-5.093
	c10.813,0,17.812,5.728,20.675,16.229c2.545,9.546,0.955,19.093-1.908,28.32c-2.226,7.637-5.089,15.273-7.952,22.909l-19.084,50.595
	c-1.271,3.5-8.271,28.002-9.859,34.365c-1.908,10.183-2.862,12.094-4.453,22.274c-0.954,5.092-2.862,11.455,0.637,14.638
	c3.182,2.545,7.634,0.954,11.132-1.271c3.182-2.228,6.361-4.455,8.907-7c9.224-8.91,18.447-18.137,27.673-27.365
	c5.09-5.092,13.041-13.364,13.041-13.364s9.86-42.957,20.039-77.323c6.997-23.229,13.042-39.774,23.538-63.322
	c5.09-11.773,23.854-47.094,30.218-58.23c20.356-36.273,41.985-67.459,71.25-98.644c6.68-7,13.995-14.638,23.22-17.819
	c3.499-1.272,9.225-1.909,13.04-2.228c12.088,0,19.403,7.954,21.948,17.817c2.227,8.594,0.316,18.774-1.272,27.365
	c-5.406,27.365-9.543,44.866-19.402,70.642c-11.132,29.275-39.759,75.098-61.707,98.325c-17.812,18.774-20.992,23.547-39.761,41.049
	c-3.5,3.184-6.997,6.684-10.814,10.184c8.588,5.092,16.223,8.91,22.584,14.638c6.043,5.729,12.404,12.728,16.539,21.002
	c10.497-5.729,20.676-12.093,28.945-20.365c6.043-6.045,11.132-13.364,16.539-19.729c4.771-5.409,9.543-10.818,14.948-15.593
	c5.09-4.455,10.497-3.816,15.587,0.317c10.18,7.638,8.271,19.093,3.816,28.957c-2.863,6.364-6.361,12.729-10.814,18.455
	c-8.27,10.819-17.812,19.41-29.264,27.365c-10.496,7-19.402,13.047-30.853,18.137c-4.137,2.227-6.681,3.183-6.681,3.183
	s-2.545,22.91-2.863,30.866c-2.861,45.184-18.447,91.323-38.805,131.418c-9.859,19.092-16.54,32.774-29.582,50.276
	c-3.499,4.455-7.316,8.91-11.451,12.728c-16.223,15.909-41.031,7.318-48.348-11.455c-3.499-9.229-6.361-20.047-6.997-29.911
	c-1.272-18.456-1.591-35.003-0.955-53.775c0.317-12.41,2.229-24.82,3.499-37.229c2.228-21.002,5.727-44.866,8.271-67.142
	c-2.862,2.546-5.091,5.092-8.589,8.91c-6.043,6.045-8.905,8.592-16.539,14.955c-6.681,5.092-12.404,8.271-19.402,11.137
	c-13.359,5.729-30.536,1.591-37.853-15.909c-3.499-8.91-5.09-18.455-3.815-28.319c4.452-29.912,12.404-58.867,24.174-86.869
	c3.499-7.955,6.68-15.91,9.543-23.865c1.271-3.184,2.227-6.364,2.544-9.546c0.955-7.318-2.544-10.183-9.224-7.638
	c-3.183,1.272-6.045,2.863-8.589,4.773c-16.54,10.818-49.62,38.185-49.62,38.185s-3.183,8.273-4.453,11.139
	c-13.042,28.318-21.312,52.504-31.172,82.732c-3.816,11.773-7.951,23.547-12.724,35.002c-5.09,12.093-15.268,15.91-27.036,10.501
	c-6.361-2.863-10.814-5.729-9.225-13.047c2.861-12.41,6.361-23.229,11.77-36.912c12.405-30.229,22.267-57.275,32.127-85.597
	c0.953-2.864,3.499-11.138,4.452-15.592c-6.043,5.409-13.041,11.772-16.856,15.909c-15.586,17.184-33.08,31.819-55.027,40.729
	c-3.816,1.591-6.044,4.138-7.634,7.955c-2.863,7.638-5.727,15.272-8.907,22.593c-9.224,23.547-23.22,43.912-40.078,62.368
	c-10.496,11.138-23.22,19.729-38.17,24.819c-16.857,5.729-31.808,2.863-45.167-9.547c-6.68-6.363-11.451-13.047-15.586-23.547
	c-2.862,2.545-5.727,5.093-7.635,6.683c-22.265,22.91-45.167,45.503-69.66,66.504c-5.09,4.455-10.813,7.955-16.539,11.455
	c-21.63,13.684-50.893,7.318-69.342-10.184c-9.226-8.909-12.404-24.818-13.995-36.911c-1.909-14.318-0.955-24.819,1.271-39.457
	c1.591-7.954,2.545-17.502,3.816-25.457L665.193,1643.96L665.193,1643.96z M432.996,1777.288c-4.453,4.771-7.952,8.593-9.86,11.138
	c-6.044,7.319-12.087,14.955-18.448,21.639c-11.133,12.093-20.038,25.457-28.943,38.82c-17.495,26.729-21.63,55.688-14.313,86.234
	l0.637,2.863c5.089,17.818,18.131,23.548,35.942,17.184c12.087-4.138,21.63-12.729,27.991-23.548
	c9.542-15.909,16.54-40.729,16.857-59.188c1.271-21.638,0-24.818-1.908-52.82C440.312,1815.473,436.177,1788.105,432.996,1777.288z
	 M950.51,1580.001c-20.676-11.455-30.218-27.047-29.264-48.366c0.318-7.955,0.955-14.638,2.863-23.547
	c-3.499,2.545-6.361,5.409-8.588,7.637l-10.18,11.455c-21.63,25.457-31.49,53.459-33.718,85.915
	c-0.954,10.184,0.637,21.001,2.545,31.186c3.181,15.273,13.041,20.364,27.674,15.909c5.09-1.592,9.542-4.138,13.679-7.638
	c25.445-18.138,43.895-68.413,43.895-68.413L950.51,1580.001L950.51,1580.001z M1255.547,1664.326l-5.09,38.185
	c-3.499,26.411-4.771,47.096-2.227,73.823c0.316,1.909,0.316,11.138,4.452,11.773c4.771,0.955,6.997-5.729,8.589-8.593
	c5.406-10.182,10.179-19.729,14.632-29.911c5.09-11.773,9.224-24.184,13.995-35.957c8.588-20.684,14.948-42.32,19.084-64.276
	c2.545-13.047,6.043-25.456,6.68-42.002c-27.99-7.955-45.485-21.319-45.485-21.319S1258.092,1644.278,1255.547,1664.326
	L1255.547,1664.326z M581.538,1727.33c-1.272,0.636-8.588,8.909-9.543,9.864c-22.583,22.909-34.034,49.64-36.896,81.461
	c-0.636,7.637,0.954,14.638,4.136,21.638c3.816,7.638,15.587,11.455,21.947,9.864c8.271-2.546,14.312-6.684,19.084-14.319
	c7.636-11.772,13.679-27.364,14.312-41.685C597.124,1758.832,581.538,1727.33,581.538,1727.33L581.538,1727.33z M1293.716,1491.86
	c0,0,18.448-14.319,18.769-14.639c19.722-17.818,32.442-35.32,47.394-57.275c16.223-27.686,35.307-61.095,45.485-91.644
	c0.955-2.546,6.68-17.502-0.637-21.318c-7.951-3.5-17.494,12.092-19.402,14.638c-3.183,4.138-14.312,19.729-17.176,23.865
	c-7.952,12.409-18.448,27.364-25.446,40.094c-14.632,27.047-13.679,23.864-27.355,51.229c-8.27,16.864-11.451,24.502-16.539,36.274
	C1292.763,1488.995,1293.716,1491.86,1293.716,1491.86z M974.047,1544.044c3.182-6.683,3.499-14.955,2.544-21.956
	c-0.317-2.227-0.953-4.771-2.226-6.682c-2.545-5.093-12.404-5.093-16.54-0.955c-5.09,5.41-5.407,11.773-2.862,18.774
	C957.507,1539.59,965.141,1545.317,974.047,1544.044L974.047,1544.044z M1156.624,1703.783c6.044-0.637,10.179-0.637,13.995,0.316
	c6.68,1.592,10.814,10.819,10.497,17.819c0,4.137-3.499,8.592-7.315,10.182c-7.315,3.5-14.312,6.364-22.584,8.909
	c-31.808,8.272-61.39,14.319-93.197,21.957c-19.401,4.772-38.805,10.183-58.209,15.909c-36.896,10.819-73.477,21.638-110.056,32.775
	c-19.401,5.729-38.169,12.41-57.254,18.773c-5.726,1.909-9.543,3.818-27.354,8.909c-20.039,6.364-37.216,13.364-57.891,21.002
	c-36.579,16.547-73.477,32.457-109.418,50.596c-32.127,16.229-63.298,33.729-93.516,53.14c-6.044,3.817-12.725,7-19.085,9.864
	c-5.091,2.227-10.18,1.908-14.949-1.592c-2.544-1.908-4.452-6.363-2.863-8.592c2.545-3.5,6.044-5.729,9.226-8.271
	c10.179-7.955,20.675-15.273,31.172-22.91c19.401-14.319,40.396-25.457,61.069-37.548c14.949-8.593,29.899-17.185,45.167-25.138
	c8.271-4.455,17.177-8.593,25.766-12.729c25.445-12.092,50.892-24.502,76.656-35.64c34.67-15.274,70.295-26.729,106.557-37.866
	c18.131-5.729,35.308-12.092,53.119-17.819c28.943-9.228,57.572-17.183,86.518-23.547c12.725-2.864,24.175-7,36.579-9.864
	l82.064-20.363c6.997-1.592,13.995-3.818,20.993-5.094C1147.719,1704.737,1152.807,1704.102,1156.624,1703.783L1156.624,1703.783z"
	/>
</svg>
