<svg xmlns="http://www.w3.org/2000/svg" xmlns:xlink="http://www.w3.org/1999/xlink" x="0px" y="0px" width="600px" height="142.026px" viewBox="0 0 600 142.026">
  <path fill="#FC4D1E" d="M196.884,82.354c-3.432,3.456-7.823,5.187-13.165,5.187c-2.574,0-4.984-0.457-7.226-1.371 c-2.242-0.909-4.147-2.179-5.724-3.815c-1.573-1.629-2.813-3.57-3.722-5.825c-0.908-2.259-1.358-4.729-1.358-7.412 c0-2.593,0.45-5.018,1.358-7.272c0.909-2.254,2.17-4.171,3.794-5.757c1.619-1.582,3.554-2.83,5.795-3.74 c2.242-0.914,4.698-1.371,7.369-1.371c2.574,0,4.963,0.457,7.158,1.371c2.191,0.91,4.101,2.183,5.72,3.816 c1.624,1.625,2.89,3.524,3.793,5.681c0.909,2.162,1.363,4.535,1.363,7.125C202.041,74.442,200.32,78.905,196.884,82.354z M200.893,2.19v37.131c-2.957-2.885-6.103-5.017-9.442-6.414c-3.339-1.392-7.255-2.085-11.738-2.085 c-5.056,0-9.753,0.965-14.094,2.881c-4.344,1.921-8.083,4.582-11.238,7.992c-3.146,3.401-5.623,7.458-7.44,12.162 c-1.812,4.7-2.717,9.786-2.717,15.259c0,5.66,0.883,10.843,2.646,15.547c1.767,4.696,4.248,8.749,7.444,12.158 c3.196,3.41,6.99,6.066,11.377,7.991c4.391,1.921,9.207,2.877,14.451,2.877c4.963,0,9.135-0.787,12.525-2.373 c3.386-1.582,6.51-4.15,9.375-7.704v7.632h20.323V2.19H200.893z"/>
  <path fill="#FC4D1E" d="M126.292,5.138C108.084-5.438,84.8,0.836,74.29,19.15c-0.595,1.036-1.136,2.089-1.625,3.154 c-3.176-6.966-8.457-13.043-15.557-17.166C38.901-5.438,15.618,0.836,5.107,19.15C-5.407,37.467,0.834,60.883,19.042,71.459 c5.161,2.995,10.729,4.595,16.297,4.992l-16.558,28.852H43.57l27.473-47.859c0.595-1.036,1.135-2.088,1.624-3.153 c3.177,6.966,8.458,13.044,15.558,17.168c5.161,2.995,10.729,4.595,16.297,4.992l-16.558,28.852h24.789l27.473-47.859 C150.736,39.13,144.499,15.71,126.292,5.138z M53.134,47.041c-4.803,8.368-15.436,11.232-23.755,6.405 c-8.315-4.831-11.167-15.53-6.363-23.894s15.436-11.232,23.754-6.4C55.085,27.979,57.933,38.677,53.134,47.041z M122.317,47.041 c-4.803,8.368-15.436,11.232-23.755,6.405c-8.315-4.831-11.167-15.53-6.363-23.894c4.803-8.364,15.436-11.232,23.754-6.4 C124.268,27.979,127.116,38.677,122.317,47.041z"/>
  <path fill="#FC4D1E" d="M248.411,61.749c0.858-4.023,2.692-7.112,5.497-9.265c2.805-2.149,6.305-3.228,10.494-3.228 c4.185,0,7.73,1.151,10.632,3.448c2.902,2.292,4.731,5.309,5.493,9.045H248.411z M299.088,54.709 c-1.906-4.78-4.542-8.922-7.928-12.416c-3.373-3.495-7.369-6.244-11.987-8.258c-4.614-2.005-9.589-3.012-14.918-3.012 c-5.139,0-9.968,1.007-14.489,3.012c-4.518,2.014-8.441,4.738-11.772,8.186c-3.335,3.444-5.972,7.513-7.924,12.205 c-1.952,4.691-2.923,9.713-2.923,15.077c0,5.355,0.971,10.356,2.923,14.997c1.952,4.649,4.618,8.689,7.991,12.137 c3.381,3.444,7.356,6.151,11.919,8.11c4.567,1.963,9.472,2.944,14.704,2.944c7.617,0,14.464-2.204,20.554-6.608 c5.829-4.209,10.393-9.949,13.69-17.222h-22.253c-2.284,2.2-4.374,3.681-6.279,4.446c-1.901,0.77-4.185,1.15-6.851,1.15 c-4.282,0-7.856-1.223-10.708-3.663c-2.856-2.441-4.521-5.674-4.993-9.688h53.528C302.498,68.86,301.83,61.604,299.088,54.709z"/>
  <path fill="#FC4D1E" d="M360.896,53.723c-1.03-14.044-11.982-22.548-27.443-22.548c-14.431,0-27.702,9.148-27.702,23.321 c0,8.375,4.768,15.461,22.806,21.002c10.694,3.35,13.142,5.411,13.142,9.405c0,3.35-3.736,5.54-7.473,5.54 c-4.252,0-7.473-2.062-8.117-6.57h-21.259c1.546,14.559,13.013,23.707,29.118,23.707c16.234,0,29.119-9.405,29.119-24.352 c0-10.437-5.54-17.266-22.548-21.774c-9.921-2.577-13.399-4.51-13.399-8.375c0-2.706,2.576-4.767,6.185-4.767 c3.479,0,6.441,1.289,6.57,5.412H360.896z"/>
  <path fill="#FC4D1E" d="M379.509,25.935c7.083,0,12.823-5.779,12.823-12.899c0-7.12-5.74-12.898-12.823-12.898 s-12.823,5.779-12.823,12.898C366.686,20.156,372.426,25.935,379.509,25.935z"/>
  <rect fill="#FC4D1E" x="368.807" y="33.464" width="21.408" height="71.787"/>
  <path fill="#FC4D1E" d="M431.111,47.247c6.506,0,11.78,5.305,11.78,11.845c0,6.54-5.274,11.844-11.78,11.844 c-6.502,0-11.776-5.305-11.776-11.844C419.335,52.547,424.609,47.247,431.111,47.247z M446.017,120.035 c-2.447,3.338-7.091,4.505-10.973,4.691c-4.563,0.22-10.775-0.829-13.896-4.582c-3.003-3.612-2.301-8.638,1.758-11.113 c1.152-0.715,2.385-1.146,3.723-1.341h10.641c4.647,0,10.536,1.315,10.498,7.086C447.758,116.596,447.094,118.567,446.017,120.035z M425.256,91.165c-8.682-1.357-8.491-4.83-6.388-6.518c19.733,7.521,43.829-2.026,43.98-24.917 c-0.049-8.387-3.027-13.737-5.321-16.205c1.807-3.466,3.878-5.205,8.321-6.277l-9.028-15.613 c-8.137,0.701-13.493,5.719-15.937,10.879c-4.805-1.963-14.655-2.194-22.508,0.615c-3.772,1.341-7.26,3.266-10.271,5.935 c-2.886,2.534-5.148,5.576-6.746,9.083c-1.683,3.651-2.41,7.56-2.436,11.574c0.046,5.458,1.754,11.956,4.938,16.385 c-8.601,8.52-8.13,21.156,0.787,29.147c-0.942,0.715-1.817,1.522-2.621,2.386c-8.05,8.791-4.243,21.009,5.006,27.426 c11.691,8.377,32.447,8.872,45.213,3.203c22.434-9.13,23.25-42.555-2.806-46.933C442.189,90.117,433.938,92.523,425.256,91.165z"/>
  <path fill="#FC4D1E" d="M471.136,105.249h21.412V65.191c0-9.379,4.046-14.067,12.139-14.067c3.898,0,6.729,1.193,8.487,3.587 c1.762,2.391,2.641,6.177,2.641,11.342v39.195h21.417V60.313c0-2.872-0.122-5.385-0.357-7.542c-0.24-2.149-0.623-4.07-1.148-5.741 c-0.521-1.675-1.232-3.207-2.137-4.594c-0.904-1.388-2.069-2.754-3.495-4.091c-2.284-2.297-5.089-4.091-8.424-5.386 c-3.327-1.29-6.898-1.938-10.704-1.938c-4.567,0-8.354,0.791-11.352,2.365c-2.995,1.583-5.732,4.142-8.21,7.687v-7.611h-20.269 V105.249z"/>
  <path fill="#FC4D1E" d="M597.81,53.723c-1.03-14.044-11.982-22.548-27.443-22.548c-14.431,0-27.702,9.148-27.702,23.321 c0,8.375,4.768,15.461,22.806,21.002c10.694,3.35,13.142,5.411,13.142,9.405c0,3.35-3.736,5.54-7.473,5.54 c-4.252,0-7.473-2.062-8.117-6.57h-21.259c1.546,14.559,13.013,23.707,29.118,23.707c16.234,0,29.119-9.405,29.119-24.352 c0-10.437-5.54-17.266-22.548-21.774c-9.921-2.577-13.399-4.51-13.399-8.375c0-2.706,2.576-4.767,6.185-4.767 c3.479,0,6.442,1.289,6.57,5.412H597.81z"/>
</svg>
